<svg xmlns="http://www.w3.org/2000/svg" width="680" height="640" viewBox="0 0 680 640" style="background:#0F172A;font-family:system-ui,sans-serif">
  <defs>
    <marker id="arr" viewBox="0 0 10 10" refX="8" refY="5" markerWidth="6" markerHeight="6" orient="auto-start-reverse">
      <path d="M2 1L8 5L2 9" fill="none" stroke="context-stroke" stroke-width="1.5" stroke-linecap="round" stroke-linejoin="round"/>
    </marker>
  </defs>

  <rect x="30" y="168" width="620" height="452" rx="12" fill="none" stroke="#334155" stroke-width="1" stroke-dasharray="6 4"/>
  <text x="50" y="186" font-size="11" fill="#64748B">GitHub Actions · scheduled daily pipeline</text>

  <text x="340" y="28" font-size="10" fill="#475569" text-anchor="middle" letter-spacing="2">DATA SOURCES</text>

  <rect x="40" y="40" width="150" height="52" rx="8" fill="#1E293B" stroke="#334155" stroke-width="0.5"/>
  <text x="115" y="62" font-size="13" font-weight="600" fill="#E2E8F0" text-anchor="middle" dominant-baseline="central">iCarros</text>
  <text x="115" y="80" font-size="11" fill="#64748B" text-anchor="middle" dominant-baseline="central">scraping · listings</text>

  <rect x="215" y="40" width="150" height="52" rx="8" fill="#1E293B" stroke="#334155" stroke-width="0.5"/>
  <text x="290" y="62" font-size="13" font-weight="600" fill="#E2E8F0" text-anchor="middle" dominant-baseline="central">WebMotos</text>
  <text x="290" y="80" font-size="11" fill="#64748B" text-anchor="middle" dominant-baseline="central">scraping · listings</text>

  <rect x="390" y="40" width="150" height="52" rx="8" fill="#1E3A5F" stroke="#185FA5" stroke-width="0.5"/>
  <text x="465" y="62" font-size="13" font-weight="600" fill="#93C5FD" text-anchor="middle" dominant-baseline="central">FIPE API</text>
  <text x="465" y="80" font-size="11" fill="#3B82F6" text-anchor="middle" dominant-baseline="central">REST · ref. prices</text>

  <rect x="565" y="40" width="80" height="52" rx="8" fill="#1E293B" stroke="#334155" stroke-width="0.5" stroke-dasharray="4 3"/>
  <text x="605" y="62" font-size="12" font-weight="600" fill="#475569" text-anchor="middle" dominant-baseline="central">+more</text>
  <text x="605" y="80" font-size="10" fill="#334155" text-anchor="middle" dominant-baseline="central">future</text>

  <path d="M115 92 L115 140 L340 140 L340 178" fill="none" stroke="#888780" stroke-width="1.5" marker-end="url(#arr)"/>
  <path d="M290 92 L290 140" fill="none" stroke="#888780" stroke-width="1.5"/>
  <path d="M465 92 L465 140" fill="none" stroke="#378ADD" stroke-width="1.5"/>
  <path d="M605 92 L605 140" fill="none" stroke="#334155" stroke-width="1.5" stroke-dasharray="4 3"/>
  <line x1="115" y1="140" x2="605" y2="140" stroke="#334155" stroke-width="0.5"/>

  <rect x="130" y="194" width="420" height="56" rx="8" fill="#1C1408" stroke="#78350F" stroke-width="0.5"/>
  <text x="340" y="216" font-size="14" font-weight="600" fill="#FCD34D" text-anchor="middle" dominant-baseline="central">Python extractor</text>
  <text x="340" y="236" font-size="12" fill="#92400E" text-anchor="middle" dominant-baseline="central">requests · BeautifulSoup · pandas · FIPE client</text>

  <path d="M340 250 L340 286 L160 286 L160 304" fill="none" stroke="#EF9F27" stroke-width="1.5" marker-end="url(#arr)"/>
  <path d="M340 250 L340 286 L520 286 L520 304" fill="none" stroke="#EF9F27" stroke-width="1.5" marker-end="url(#arr)"/>
  <text x="224" y="280" font-size="10" fill="#78350F" text-anchor="middle">raw dump</text>
  <text x="456" y="280" font-size="10" fill="#78350F" text-anchor="middle">clean data</text>

  <rect x="40" y="306" width="240" height="56" rx="8" fill="#1E3A5F" stroke="#185FA5" stroke-width="0.5"/>
  <text x="160" y="328" font-size="14" font-weight="600" fill="#93C5FD" text-anchor="middle" dominant-baseline="central">AWS S3</text>
  <text x="160" y="346" font-size="12" fill="#3B82F6" text-anchor="middle" dominant-baseline="central">data lake · raw files</text>

  <rect x="400" y="306" width="240" height="56" rx="8" fill="#0D2818" stroke="#166534" stroke-width="0.5"/>
  <text x="520" y="328" font-size="14" font-weight="600" fill="#4ADE80" text-anchor="middle" dominant-baseline="central">PostgreSQL</text>
  <text x="520" y="346" font-size="12" fill="#166534" text-anchor="middle" dominant-baseline="central">data warehouse · clean</text>

  <path d="M520 362 L520 396 L340 396 L340 414" fill="none" stroke="#22C55E" stroke-width="1.5" marker-end="url(#arr)"/>

  <rect x="150" y="416" width="380" height="56" rx="8" fill="#1E1B30" stroke="#4C1D95" stroke-width="0.5"/>
  <text x="340" y="438" font-size="14" font-weight="600" fill="#C4B5FD" text-anchor="middle" dominant-baseline="central">dbt</text>
  <text x="340" y="456" font-size="12" fill="#7C3AED" text-anchor="middle" dominant-baseline="central">staging → fct_anuncios → fct_depreciacoes</text>

  <line x1="340" y1="472" x2="340" y2="524" stroke="#8B5CF6" stroke-width="1.5" marker-end="url(#arr)"/>

  <rect x="190" y="526" width="300" height="56" rx="8" fill="#173404" stroke="#3B6D11" stroke-width="0.5"/>
  <text x="340" y="548" font-size="14" font-weight="600" fill="#86EFAC" text-anchor="middle" dominant-baseline="central">Power BI</text>
  <text x="340" y="566" font-size="12" fill="#3B6D11" text-anchor="middle" dominant-baseline="central">dashboard · depreciation KPI · spread %</text>

  <rect x="40" y="610" width="12" height="8" rx="2" fill="#888780" opacity="0.7"/>
  <text x="56" y="618" font-size="10" fill="#475569">scraping</text>
  <rect x="116" y="610" width="12" height="8" rx="2" fill="#378ADD" opacity="0.7"/>
  <text x="132" y="618" font-size="10" fill="#475569">API</text>
  <rect x="172" y="610" width="12" height="8" rx="2" fill="#EF9F27" opacity="0.7"/>
  <text x="188" y="618" font-size="10" fill="#475569">extract</text>
  <rect x="248" y="610" width="12" height="8" rx="2" fill="#378ADD" opacity="0.7"/>
  <rect x="264" y="610" width="12" height="8" rx="2" fill="#22C55E" opacity="0.7"/>
  <text x="280" y="618" font-size="10" fill="#475569">storage</text>
  <rect x="342" y="610" width="12" height="8" rx="2" fill="#8B5CF6" opacity="0.7"/>
  <text x="358" y="618" font-size="10" fill="#475569">transform (AE)</text>
  <rect x="468" y="610" width="12" height="8" rx="2" fill="#3B6D11" opacity="0.7"/>
  <text x="484" y="618" font-size="10" fill="#475569">visualize</text>
</svg>
